<?xml version="1.0" encoding="UTF-8" standalone="no"?>
<!-- Created with Inkscape (http://www.inkscape.org/) -->

<svg
   xmlns:dc="http://purl.org/dc/elements/1.1/"
   xmlns:cc="http://creativecommons.org/ns#"
   xmlns:rdf="http://www.w3.org/1999/02/22-rdf-syntax-ns#"
   xmlns:svg="http://www.w3.org/2000/svg"
   xmlns="http://www.w3.org/2000/svg"
   xmlns:sodipodi="http://sodipodi.sourceforge.net/DTD/sodipodi-0.dtd"
   xmlns:inkscape="http://www.inkscape.org/namespaces/inkscape"
   width="210mm"
   height="297mm"
   id="svg3664"
   version="1.1"
   inkscape:version="0.48.2 r9819"
   sodipodi:docname="Akzeptor2.svg">
  <defs
     id="defs3666" />
  <sodipodi:namedview
     id="base"
     pagecolor="#ffffff"
     bordercolor="#666666"
     borderopacity="1.0"
     inkscape:pageopacity="0.0"
     inkscape:pageshadow="2"
     inkscape:zoom="3.959798"
     inkscape:cx="287.15705"
     inkscape:cy="533.39944"
     inkscape:document-units="px"
     inkscape:current-layer="layer1"
     showgrid="false"
     inkscape:window-width="700"
     inkscape:window-height="970"
     inkscape:window-x="579"
     inkscape:window-y="26"
     inkscape:window-maximized="0" />
  <metadata
     id="metadata3669">
    <rdf:RDF>
      <cc:Work
         rdf:about="">
        <dc:format>image/svg+xml</dc:format>
        <dc:type
           rdf:resource="http://purl.org/dc/dcmitype/StillImage" />
        <dc:title />
      </cc:Work>
    </rdf:RDF>
  </metadata>
  <g
     inkscape:label="Ebene 1"
     inkscape:groupmode="layer"
     id="layer1">
    <g
       id="g340"
       transform="matrix(1.25,0,0,-1.25,290.1885,518.17192)">
      <path
         id="path342"
         style="fill:none;stroke:#000000;stroke-width:1.39478004;stroke-linecap:butt;stroke-linejoin:miter;stroke-miterlimit:10;stroke-opacity:1;stroke-dasharray:none"
         d="M 14.63266,0 C 14.63266,8.12102 8.12102,14.63266 0,14.63266 -8.12102,14.63266 -14.63266,8.12102 -14.63266,0 c 0,-8.12102 6.51164,-14.63266 14.63266,-14.63266 8.12102,0 14.63266,6.51164 14.63266,14.63266 z"
         inkscape:connector-curvature="0" />
      <path
         id="path344"
         style="fill:none;stroke:#ffffff;stroke-width:0.59776002;stroke-linecap:butt;stroke-linejoin:miter;stroke-miterlimit:10;stroke-opacity:1;stroke-dasharray:none"
         d="M 14.63266,0 C 14.63266,8.12102 8.12102,14.63266 0,14.63266 -8.12102,14.63266 -14.63266,8.12102 -14.63266,0 c 0,-8.12102 6.51164,-14.63266 14.63266,-14.63266 8.12102,0 14.63266,6.51164 14.63266,14.63266 z"
         inkscape:connector-curvature="0" />
    </g>
    <g
       transform="matrix(1.25,0,0,-1.25,285.43823,523.61174)"
       id="g346">
      <g
         id="g348">
        <g
           transform="translate(-154.206,-261.638)"
           id="g350">
          <text
             id="text352"
             transform="matrix(1,0,0,-1,154.206,261.638)">
            <tspan
               id="tspan354"
               y="0"
               x="0"
               style="font-size:11.9552002px;font-variant:normal;font-weight:normal;writing-mode:lr-tb;fill:#000000;fill-opacity:1;fill-rule:nonzero;stroke:none;font-family:CMR12;-inkscape-font-specification:CMR12">0</tspan>
          </text>
          <g
             transform="translate(154.206,261.638)"
             id="g356" />
        </g>
      </g>
      <g
         transform="translate(2.926,3.853)"
         id="g358" />
    </g>
    <g
       id="g360"
       transform="matrix(1.25,0,0,-1.25,289.09573,518.79549)">
      <path
         inkscape:connector-curvature="0"
         d="m -30.5731,0 12.4535,0"
         style="fill:none;stroke:#000000;stroke-width:0.3985;stroke-linecap:butt;stroke-linejoin:miter;stroke-miterlimit:10;stroke-opacity:1;stroke-dasharray:none"
         id="path362" />
      <g
         id="g364"
         transform="translate(-18.1196,0)">
        <g
           id="g366">
          <path
             inkscape:connector-curvature="0"
             d="M 1.99252,0 -1.19551,1.59401 0,0 -1.19551,-1.59401"
             style="fill:#000000;fill-opacity:1;fill-rule:nonzero;stroke:none"
             id="path368" />
        </g>
      </g>
      <g
         id="g370">
        <g
           id="g372"
           transform="translate(-34.673,0)">
          <g
             id="g374" />
          <g
             id="g376"
             transform="translate(34.673,0)" />
        </g>
      </g>
    </g>
    <g
       id="g378"
       transform="matrix(1.25,0,0,-1.25,289.09573,518.79549)">
      <g
         id="g380">
        <path
           inkscape:connector-curvature="0"
           d="m 71.3263,0 c 0,8.12102 -6.51165,14.63266 -14.63267,14.63266 C 48.5726,14.63266 42.06096,8.12102 42.06096,0 c 0,-8.12102 6.51164,-14.63266 14.63267,-14.63266 8.12102,0 14.63267,6.51164 14.63267,14.63266 z"
           style="fill:none;stroke:#000000;stroke-width:1.39478004;stroke-linecap:butt;stroke-linejoin:miter;stroke-miterlimit:10;stroke-opacity:1;stroke-dasharray:none"
           id="path382" />
        <path
           inkscape:connector-curvature="0"
           d="m 71.3263,0 c 0,8.12102 -6.51165,14.63266 -14.63267,14.63266 C 48.5726,14.63266 42.06096,8.12102 42.06096,0 c 0,-8.12102 6.51164,-14.63266 14.63267,-14.63266 8.12102,0 14.63267,6.51164 14.63267,14.63266 z"
           style="fill:none;stroke:#ffffff;stroke-width:0.59776002;stroke-linecap:butt;stroke-linejoin:miter;stroke-miterlimit:10;stroke-opacity:1;stroke-dasharray:none"
           id="path384" />
      </g>
      <g
         id="g386"
         transform="translate(53.767,-3.853)">
        <g
           id="g388">
          <g
             id="g390"
             transform="translate(-210.899,-261.638)">
            <text
               transform="matrix(1,0,0,-1,210.899,261.638)"
               id="text392">
              <tspan
                 style="font-size:11.9552002px;font-variant:normal;font-weight:normal;writing-mode:lr-tb;fill:#000000;fill-opacity:1;fill-rule:nonzero;stroke:none;font-family:CMR12;-inkscape-font-specification:CMR12"
                 x="0"
                 y="0"
                 id="tspan394">1</tspan>
            </text>
            <g
               id="g396"
               transform="translate(210.899,261.638)" />
          </g>
        </g>
        <g
           id="g398"
           transform="translate(-53.767,3.853)" />
      </g>
    </g>
    <g
       id="g400"
       transform="matrix(1.25,0,0,-1.25,289.09573,518.79549)">
      <path
         inkscape:connector-curvature="0"
         d="m 128.01993,0 c 0,8.12102 -6.51164,14.63266 -14.63266,14.63266 C 105.26625,14.63266 98.7546,8.12102 98.7546,0 c 0,-8.12102 6.51165,-14.63266 14.63267,-14.63266 8.12102,0 14.63266,6.51164 14.63266,14.63266 z"
         style="fill:none;stroke:#000000;stroke-width:0.3985;stroke-linecap:butt;stroke-linejoin:miter;stroke-miterlimit:10;stroke-opacity:1;stroke-dasharray:none"
         id="path402" />
      <g
         id="g404"
         transform="translate(110.46,-3.853)">
        <g
           id="g406">
          <g
             id="g408"
             transform="translate(-267.592,-261.638)">
            <text
               transform="matrix(1,0,0,-1,267.592,261.638)"
               id="text410">
              <tspan
                 style="font-size:11.9552002px;font-variant:normal;font-weight:normal;writing-mode:lr-tb;fill:#000000;fill-opacity:1;fill-rule:nonzero;stroke:none;font-family:CMR12;-inkscape-font-specification:CMR12"
                 x="0"
                 y="0"
                 id="tspan412">2</tspan>
            </text>
            <g
               id="g414"
               transform="translate(267.592,261.638)" />
          </g>
        </g>
        <g
           id="g416"
           transform="translate(-110.46,3.853)" />
      </g>
    </g>
    <g
       id="g418"
       transform="matrix(1.25,0,0,-1.25,289.09573,518.79549)">
      <path
         inkscape:connector-curvature="0"
         d="M 3.92398,-14.64386 C 10.2607,-38.29272 -10.2607,-38.29272 -4.69905,-17.53648"
         style="fill:none;stroke:#000000;stroke-width:0.3985;stroke-linecap:butt;stroke-linejoin:miter;stroke-miterlimit:10;stroke-opacity:1;stroke-dasharray:none"
         id="path420" />
      <g
         id="g422"
         transform="matrix(0.25932,0.96782,-0.96782,0.25932,-4.69905,-17.53648)">
        <g
           id="g424">
          <path
             inkscape:connector-curvature="0"
             d="M 1.99252,0 -1.19551,1.59401 0,0 -1.19551,-1.59401"
             style="fill:#000000;fill-opacity:1;fill-rule:nonzero;stroke:none"
             id="path426" />
        </g>
      </g>
      <g
         id="g428">
        <g
           id="g430"
           transform="translate(-3.076,-41.629)">
          <g
             id="g432">
            <g
               id="g434"
               transform="translate(-154.056,-223.862)">
              <text
                 transform="matrix(1,0,0,-1,154.056,223.862)"
                 id="text436">
                <tspan
                   style="font-size:11.9552002px;font-variant:normal;font-weight:normal;writing-mode:lr-tb;fill:#000080;fill-opacity:1;fill-rule:nonzero;stroke:none;font-family:CMTT12;-inkscape-font-specification:CMTT12"
                   x="0"
                   y="0"
                   id="tspan438">a</tspan>
              </text>
              <g
                 id="g440"
                 transform="translate(154.056,223.862)" />
            </g>
          </g>
          <g
             id="g442"
             transform="translate(3.076,41.629)" />
        </g>
      </g>
    </g>
    <g
       id="g444"
       transform="matrix(1.25,0,0,-1.25,289.09573,518.79549)">
      <path
         inkscape:connector-curvature="0"
         d="M 13.14523,-7.58894 C 23.41313,-13.5171 33.28049,-13.5171 40.9518,-9.08821"
         style="fill:none;stroke:#000000;stroke-width:0.3985;stroke-linecap:butt;stroke-linejoin:miter;stroke-miterlimit:10;stroke-opacity:1;stroke-dasharray:none"
         id="path446" />
      <g
         id="g448"
         transform="matrix(0.86877,0.50163,-0.50163,0.86877,40.9518,-9.08821)">
        <g
           id="g450">
          <path
             inkscape:connector-curvature="0"
             d="M 1.99252,0 -1.19551,1.59401 0,0 -1.19551,-1.59401"
             style="fill:#000000;fill-opacity:1;fill-rule:nonzero;stroke:none"
             id="path452" />
        </g>
      </g>
      <g
         id="g454">
        <g
           id="g456"
           transform="translate(25.271,-23.442)">
          <g
             id="g458">
            <g
               id="g460"
               transform="translate(-182.403,-242.049)">
              <text
                 transform="matrix(1,0,0,-1,182.403,242.049)"
                 id="text462">
                <tspan
                   style="font-size:11.9552002px;font-variant:normal;font-weight:normal;writing-mode:lr-tb;fill:#000080;fill-opacity:1;fill-rule:nonzero;stroke:none;font-family:CMTT12;-inkscape-font-specification:CMTT12"
                   x="0"
                   y="0"
                   id="tspan464">b</tspan>
              </text>
              <g
                 id="g466"
                 transform="translate(182.403,242.049)" />
            </g>
          </g>
          <g
             id="g468"
             transform="translate(-25.271,23.442)" />
        </g>
      </g>
    </g>
    <g
       id="g470"
       transform="matrix(1.25,0,0,-1.25,289.09573,518.79549)">
      <path
         inkscape:connector-curvature="0"
         d="M 71.82443,0 95.56654,0"
         style="fill:none;stroke:#000000;stroke-width:0.3985;stroke-linecap:butt;stroke-linejoin:miter;stroke-miterlimit:10;stroke-opacity:1;stroke-dasharray:none"
         id="path472" />
      <g
         id="g474"
         transform="translate(95.56654,0)">
        <g
           id="g476">
          <path
             inkscape:connector-curvature="0"
             d="M 1.99252,0 -1.19551,1.59401 0,0 -1.19551,-1.59401"
             style="fill:#000000;fill-opacity:1;fill-rule:nonzero;stroke:none"
             id="path478" />
        </g>
      </g>
      <g
         id="g480">
        <g
           id="g482"
           transform="translate(82.113,4.1)">
          <g
             id="g484">
            <g
               id="g486"
               transform="translate(-239.245,-269.591)">
              <text
                 transform="matrix(1,0,0,-1,239.245,269.591)"
                 id="text488">
                <tspan
                   style="font-size:11.9552002px;font-variant:normal;font-weight:normal;writing-mode:lr-tb;fill:#000080;fill-opacity:1;fill-rule:nonzero;stroke:none;font-family:CMTT12;-inkscape-font-specification:CMTT12"
                   x="0"
                   y="0"
                   id="tspan490">b</tspan>
              </text>
              <g
                 id="g492"
                 transform="translate(239.245,269.591)" />
            </g>
          </g>
          <g
             id="g494"
             transform="translate(-82.113,-4.1)" />
        </g>
      </g>
    </g>
    <g
       id="g496"
       transform="matrix(1.25,0,0,-1.25,289.09573,518.79549)">
      <path
         inkscape:connector-curvature="0"
         d="M 43.54839,7.58894 C 33.28049,13.5171 23.41313,13.5171 15.74182,9.08821"
         style="fill:none;stroke:#000000;stroke-width:0.3985;stroke-linecap:butt;stroke-linejoin:miter;stroke-miterlimit:10;stroke-opacity:1;stroke-dasharray:none"
         id="path498" />
      <g
         id="g500"
         transform="matrix(-0.86877,-0.50163,0.50163,-0.86877,15.74182,9.08821)">
        <g
           id="g502">
          <path
             inkscape:connector-curvature="0"
             d="M 1.99252,0 -1.19551,1.59401 0,0 -1.19551,-1.59401"
             style="fill:#000000;fill-opacity:1;fill-rule:nonzero;stroke:none"
             id="path504" />
        </g>
      </g>
      <g
         id="g506">
        <g
           id="g508"
           transform="translate(25.271,16.135)">
          <g
             id="g510">
            <g
               id="g512"
               transform="translate(-182.403,-281.626)">
              <text
                 transform="matrix(1,0,0,-1,182.403,281.626)"
                 id="text514">
                <tspan
                   style="font-size:11.9552002px;font-variant:normal;font-weight:normal;writing-mode:lr-tb;fill:#000080;fill-opacity:1;fill-rule:nonzero;stroke:none;font-family:CMTT12;-inkscape-font-specification:CMTT12"
                   x="0"
                   y="0"
                   id="tspan516">a</tspan>
              </text>
              <g
                 id="g518"
                 transform="translate(182.403,281.626)" />
            </g>
          </g>
          <g
             id="g520"
             transform="translate(-25.271,-16.135)" />
        </g>
      </g>
    </g>
    <g
       id="g522"
       transform="matrix(1.25,0,0,-1.25,289.09573,518.79549)">
      <path
         inkscape:connector-curvature="0"
         d="m 117.23375,-14.3546 c 6.21168,-23.18239 -13.90466,-23.18239 -8.46803,-2.89261"
         style="fill:none;stroke:#000000;stroke-width:0.3985;stroke-linecap:butt;stroke-linejoin:miter;stroke-miterlimit:10;stroke-opacity:1;stroke-dasharray:none"
         id="path524" />
      <g
         id="g526"
         transform="matrix(0.25932,0.96782,-0.96782,0.25932,108.76572,-17.24721)">
        <g
           id="g528">
          <path
             inkscape:connector-curvature="0"
             d="M 1.99252,0 -1.19551,1.59401 0,0 -1.19551,-1.59401"
             style="fill:#000000;fill-opacity:1;fill-rule:nonzero;stroke:none"
             id="path530" />
        </g>
      </g>
      <g
         id="g532">
        <g
           id="g534"
           transform="translate(104.612,-43.148)">
          <g
             id="g536">
            <g
               id="g538"
               transform="translate(-261.744,-222.343)">
              <text
                 transform="matrix(1,0,0,-1,261.744,222.343)"
                 id="text540">
                <tspan
                   style="font-size:11.9552002px;font-variant:normal;font-weight:normal;writing-mode:lr-tb;fill:#000080;fill-opacity:1;fill-rule:nonzero;stroke:none;font-family:CMTT12;-inkscape-font-specification:CMTT12"
                   x="0"
                   y="0"
                   id="tspan542">a</tspan>
              </text>
              <text
                 transform="matrix(1,0,0,-1,267.896,222.343)"
                 id="text544">
                <tspan
                   style="font-size:11.9552002px;font-variant:normal;font-weight:normal;writing-mode:lr-tb;fill:#000000;fill-opacity:1;fill-rule:nonzero;stroke:none;font-family:CMMI12;-inkscape-font-specification:CMMI12"
                   x="0"
                   y="0"
                   id="tspan546">,</tspan>
              </text>
              <text
                 transform="matrix(1,0,0,-1,273.14,222.343)"
                 id="text548">
                <tspan
                   style="font-size:11.9552002px;font-variant:normal;font-weight:normal;writing-mode:lr-tb;fill:#000080;fill-opacity:1;fill-rule:nonzero;stroke:none;font-family:CMTT12;-inkscape-font-specification:CMTT12"
                   x="0"
                   y="0"
                   id="tspan550">b</tspan>
              </text>
              <g
                 id="g552"
                 transform="translate(261.744,222.343)" />
            </g>
          </g>
          <g
             id="g554"
             transform="translate(-104.612,43.148)" />
        </g>
      </g>
    </g>
  </g>
</svg>
