<?xml version="1.0" encoding="UTF-8" standalone="no"?>
<!-- Created with Inkscape (http://www.inkscape.org/) -->

<svg
   xmlns:osb="http://www.openswatchbook.org/uri/2009/osb"
   xmlns:dc="http://purl.org/dc/elements/1.1/"
   xmlns:cc="http://creativecommons.org/ns#"
   xmlns:rdf="http://www.w3.org/1999/02/22-rdf-syntax-ns#"
   xmlns:svg="http://www.w3.org/2000/svg"
   xmlns="http://www.w3.org/2000/svg"
   xmlns:sodipodi="http://sodipodi.sourceforge.net/DTD/sodipodi-0.dtd"
   xmlns:inkscape="http://www.inkscape.org/namespaces/inkscape"
   width="210mm"
   height="297mm"
   id="svg8012"
   version="1.1"
   inkscape:version="0.48.2 r9819"
   sodipodi:docname="Akzeptor1.svg">
  <defs
     id="defs8014">
    <marker
       inkscape:stockid="Arrow2Lend"
       orient="auto"
       refY="0.0"
       refX="0.0"
       id="Arrow2Lend"
       style="overflow:visible;">
      <path
         id="path7546"
         style="font-size:12.0;fill-rule:evenodd;stroke-width:0.62500000;stroke-linejoin:round;"
         d="M 8.7185878,4.0337352 L -2.2072895,0.016013256 L 8.7185884,-4.0017078 C 6.9730900,-1.6296469 6.9831476,1.6157441 8.7185878,4.0337352 z "
         transform="scale(1.1) rotate(180) translate(1,0)" />
    </marker>
    <marker
       inkscape:stockid="Arrow1Lstart"
       orient="auto"
       refY="0.0"
       refX="0.0"
       id="Arrow1Lstart"
       style="overflow:visible">
      <path
         id="path7525"
         d="M 0.0,0.0 L 5.0,-5.0 L -12.5,0.0 L 5.0,5.0 L 0.0,0.0 z "
         style="fill-rule:evenodd;stroke:#000000;stroke-width:1.0pt;marker-start:none"
         transform="scale(0.8) translate(12.5,0)" />
    </marker>
    <marker
       inkscape:stockid="Arrow1Lend"
       orient="auto"
       refY="0.0"
       refX="0.0"
       id="Arrow1Lend"
       style="overflow:visible;">
      <path
         id="path7528"
         d="M 0.0,0.0 L 5.0,-5.0 L -12.5,0.0 L 5.0,5.0 L 0.0,0.0 z "
         style="fill-rule:evenodd;stroke:#000000;stroke-width:1.0pt;marker-start:none;"
         transform="scale(0.8) rotate(180) translate(12.5,0)" />
    </marker>
    <linearGradient
       id="linearGradient8532"
       osb:paint="gradient">
      <stop
         style="stop-color:#ffffff;stop-opacity:1;"
         offset="0"
         id="stop8534" />
      <stop
         style="stop-color:#ffffff;stop-opacity:0;"
         offset="1"
         id="stop8536" />
    </linearGradient>
  </defs>
  <sodipodi:namedview
     id="base"
     pagecolor="#ffffff"
     bordercolor="#666666"
     borderopacity="1.0"
     inkscape:pageopacity="0.0"
     inkscape:pageshadow="2"
     inkscape:zoom="0.6402931"
     inkscape:cx="220.44903"
     inkscape:cy="439.49011"
     inkscape:document-units="px"
     inkscape:current-layer="layer1"
     showgrid="false"
     inkscape:object-paths="true"
     inkscape:snap-smooth-nodes="true"
     inkscape:snap-intersection-paths="true"
     inkscape:window-width="1280"
     inkscape:window-height="970"
     inkscape:window-x="0"
     inkscape:window-y="26"
     inkscape:window-maximized="1">
    <inkscape:grid
       type="xygrid"
       id="grid8583" />
  </sodipodi:namedview>
  <metadata
     id="metadata8017">
    <rdf:RDF>
      <cc:Work
         rdf:about="">
        <dc:format>image/svg+xml</dc:format>
        <dc:type
           rdf:resource="http://purl.org/dc/dcmitype/StillImage" />
        <dc:title />
      </cc:Work>
    </rdf:RDF>
  </metadata>
  <g
     inkscape:label="Ebene 1"
     inkscape:groupmode="layer"
     id="layer1">
    <g
       id="g3143"
       transform="translate(-1.486945,-2.42075)">
      <g
         transform="matrix(2.7822405,0,0,-2.7822405,84.129929,674.78293)"
         id="g338">
        <g
           id="g340">
          <path
             id="path342"
             style="fill:none;stroke:#000000;stroke-width:1.39478004;stroke-linecap:butt;stroke-linejoin:miter;stroke-miterlimit:10;stroke-opacity:1;stroke-dasharray:none"
             d="M 14.63266,0 C 14.63266,8.12102 8.12102,14.63266 0,14.63266 -8.12102,14.63266 -14.63266,8.12102 -14.63266,0 c 0,-8.12102 6.51164,-14.63266 14.63266,-14.63266 8.12102,0 14.63266,6.51164 14.63266,14.63266 z"
             inkscape:connector-curvature="0" />
          <path
             id="path344"
             style="fill:none;stroke:#ffffff;stroke-width:0.59776002;stroke-linecap:butt;stroke-linejoin:miter;stroke-miterlimit:10;stroke-opacity:1;stroke-dasharray:none"
             d="M 14.63266,0 C 14.63266,8.12102 8.12102,14.63266 0,14.63266 -8.12102,14.63266 -14.63266,8.12102 -14.63266,0 c 0,-8.12102 6.51164,-14.63266 14.63266,-14.63266 8.12102,0 14.63266,6.51164 14.63266,14.63266 z"
             inkscape:connector-curvature="0" />
        </g>
        <g
           transform="translate(-2.926,-3.853)"
           id="g346">
          <g
             id="g348">
            <g
               transform="translate(-154.206,-261.638)"
               id="g350">
              <text
                 id="text352"
                 transform="matrix(1,0,0,-1,154.206,261.638)">
                <tspan
                   id="tspan354"
                   y="0"
                   x="0"
                   style="font-size:11.9552002px;font-variant:normal;font-weight:normal;writing-mode:lr-tb;fill:#000000;fill-opacity:1;fill-rule:nonzero;stroke:none;font-family:CMR12;-inkscape-font-specification:CMR12">0</tspan>
              </text>
              <g
                 transform="translate(154.206,261.638)"
                 id="g356" />
            </g>
          </g>
          <g
             transform="translate(2.926,3.853)"
             id="g358" />
        </g>
      </g>
      <g
         transform="matrix(2.7822405,0,0,-2.7822405,11.594313,674.78293)"
         id="g400">
        <path
           id="path402"
           style="fill:none;stroke:#000000;stroke-width:0.3985;stroke-linecap:butt;stroke-linejoin:miter;stroke-miterlimit:10;stroke-opacity:1;stroke-dasharray:none"
           d="m 128.01993,0 c 0,8.12102 -6.51164,14.63266 -14.63266,14.63266 C 105.26625,14.63266 98.7546,8.12102 98.7546,0 c 0,-8.12102 6.51165,-14.63266 14.63267,-14.63266 8.12102,0 14.63266,6.51164 14.63266,14.63266 z"
           inkscape:connector-curvature="0" />
        <g
           transform="translate(110.46,-3.853)"
           id="g404">
          <g
             id="g406">
            <g
               transform="translate(-267.592,-261.638)"
               id="g408">
              <text
                 id="text410"
                 transform="matrix(1,0,0,-1,267.592,261.638)">
                <tspan
                   id="tspan412"
                   y="0"
                   x="0"
                   style="font-size:11.9552002px;font-variant:normal;font-weight:normal;writing-mode:lr-tb;fill:#000000;fill-opacity:1;fill-rule:nonzero;stroke:none;font-family:CMR12;-inkscape-font-specification:CMR12">2</tspan>
              </text>
              <g
                 transform="translate(267.592,261.638)"
                 id="g414" />
            </g>
          </g>
          <g
             transform="translate(-110.46,3.853)"
             id="g416" />
        </g>
      </g>
      <g
         id="g3089"
         transform="matrix(2.7822405,0,0,-2.7822405,-109.87319,674.78293)">
        <path
           inkscape:connector-curvature="0"
           d="m 128.01993,0 c 0,8.12102 -6.51164,14.63266 -14.63266,14.63266 C 105.26625,14.63266 98.7546,8.12102 98.7546,0 c 0,-8.12102 6.51165,-14.63266 14.63267,-14.63266 8.12102,0 14.63266,6.51164 14.63266,14.63266 z"
           style="fill:none;stroke:#000000;stroke-width:0.3985;stroke-linecap:butt;stroke-linejoin:miter;stroke-miterlimit:10;stroke-opacity:1;stroke-dasharray:none"
           id="path3091" />
        <g
           id="g3093"
           transform="translate(110.46,-3.853)">
          <g
             id="g3095">
            <g
               id="g3097"
               transform="translate(-267.592,-261.638)">
              <text
                 transform="matrix(1,0,0,-1,267.592,261.638)"
                 id="text3099">
                <tspan
                   style="font-size:11.9552002px;font-variant:normal;font-weight:normal;writing-mode:lr-tb;fill:#000000;fill-opacity:1;fill-rule:nonzero;stroke:none;font-family:CMR12;-inkscape-font-specification:CMR12"
                   x="0"
                   y="0"
                   id="tspan3101">1</tspan>
              </text>
              <g
                 id="g3103"
                 transform="translate(267.592,261.638)" />
            </g>
          </g>
          <g
             id="g3105"
             transform="translate(-110.46,3.853)" />
        </g>
      </g>
      <g
         transform="matrix(2.7822405,0,0,-2.7822405,133.06183,674.78293)"
         id="g3107">
        <path
           id="path3109"
           style="fill:none;stroke:#000000;stroke-width:0.3985;stroke-linecap:butt;stroke-linejoin:miter;stroke-miterlimit:10;stroke-opacity:1;stroke-dasharray:none"
           d="m 128.01993,0 c 0,8.12102 -6.51164,14.63266 -14.63266,14.63266 C 105.26625,14.63266 98.7546,8.12102 98.7546,0 c 0,-8.12102 6.51165,-14.63266 14.63267,-14.63266 8.12102,0 14.63266,6.51164 14.63266,14.63266 z"
           inkscape:connector-curvature="0" />
        <g
           transform="translate(110.46,-3.853)"
           id="g3111">
          <g
             id="g3113">
            <g
               transform="translate(-267.592,-261.638)"
               id="g3115">
              <text
                 id="text3117"
                 transform="matrix(1,0,0,-1,267.592,261.638)">
                <tspan
                   id="tspan3119"
                   y="0"
                   x="0"
                   style="font-size:11.9552002px;font-variant:normal;font-weight:normal;writing-mode:lr-tb;fill:#000000;fill-opacity:1;fill-rule:nonzero;stroke:none;font-family:CMR12;-inkscape-font-specification:CMR12">3</tspan>
              </text>
              <g
                 transform="translate(267.592,261.638)"
                 id="g3121" />
            </g>
          </g>
          <g
             transform="translate(-110.46,3.853)"
             id="g3123" />
        </g>
      </g>
      <g
         id="g3125"
         transform="matrix(2.7822405,0,0,-2.7822405,254.52935,674.78293)">
        <path
           inkscape:connector-curvature="0"
           d="m 128.01993,0 c 0,8.12102 -6.51164,14.63266 -14.63266,14.63266 C 105.26625,14.63266 98.7546,8.12102 98.7546,0 c 0,-8.12102 6.51165,-14.63266 14.63267,-14.63266 8.12102,0 14.63266,6.51164 14.63266,14.63266 z"
           style="fill:none;stroke:#000000;stroke-width:0.3985;stroke-linecap:butt;stroke-linejoin:miter;stroke-miterlimit:10;stroke-opacity:1;stroke-dasharray:none"
           id="path3127" />
        <g
           id="g3129"
           transform="translate(110.46,-3.853)">
          <g
             id="g3131">
            <g
               id="g3133"
               transform="translate(-267.592,-261.638)">
              <text
                 transform="matrix(1,0,0,-1,267.592,261.638)"
                 id="text3135">
                <tspan
                   style="font-size:11.9552002px;font-variant:normal;font-weight:normal;writing-mode:lr-tb;fill:#000000;fill-opacity:1;fill-rule:nonzero;stroke:none;font-family:CMR12;-inkscape-font-specification:CMR12"
                   x="0"
                   y="0"
                   id="tspan3137">4</tspan>
              </text>
              <g
                 id="g3139"
                 transform="translate(267.592,261.638)" />
            </g>
          </g>
          <g
             id="g3141"
             transform="translate(-110.46,3.853)" />
        </g>
      </g>
    </g>
    <g
       id="g3399">
      <g
         transform="matrix(3.2621558,0,0,-3.2621558,130,662.36219)"
         id="g508">
        <g
           id="g510">
          <g
             transform="translate(-182.403,-281.626)"
             id="g512">
            <text
               id="text514"
               transform="matrix(1,0,0,-1,182.403,281.626)">
              <tspan
                 id="tspan516"
                 y="0"
                 x="0"
                 style="font-size:11.9552002px;font-variant:normal;font-weight:normal;writing-mode:lr-tb;fill:#000080;fill-opacity:1;fill-rule:nonzero;stroke:none;font-family:CMTT12;-inkscape-font-specification:CMTT12">a</tspan>
            </text>
            <g
               transform="translate(182.403,281.626)"
               id="g518" />
          </g>
        </g>
        <g
           transform="translate(-25.271,-16.135)"
           id="g520" />
      </g>
      <g
         id="g3215"
         transform="matrix(3.2621558,0,0,-3.2621558,252.35703,662.36219)">
        <g
           id="g3217">
          <g
             id="g3219"
             transform="translate(-182.403,-281.626)">
            <text
               transform="matrix(1,0,0,-1,182.403,281.626)"
               id="text3221">
              <tspan
                 style="font-size:11.9552002px;font-variant:normal;font-weight:normal;writing-mode:lr-tb;fill:#000080;fill-opacity:1;fill-rule:nonzero;stroke:none;font-family:CMTT12;-inkscape-font-specification:CMTT12"
                 x="0"
                 y="0"
                 id="tspan3223">a</tspan>
            </text>
            <g
               id="g3225"
               transform="translate(182.403,281.626)" />
          </g>
        </g>
        <g
           id="g3227"
           transform="translate(-25.271,-16.135)" />
      </g>
      <g
         transform="matrix(3.2621558,0,0,-3.2621558,374.71405,662.36219)"
         id="g3231">
        <g
           id="g3233">
          <g
             transform="translate(-182.403,-281.626)"
             id="g3235">
            <text
               id="text3237"
               transform="matrix(1,0,0,-1,182.403,281.626)">
              <tspan
                 id="tspan3239"
                 y="0"
                 x="0"
                 style="font-size:11.9552002px;font-variant:normal;font-weight:normal;writing-mode:lr-tb;fill:#000080;fill-opacity:1;fill-rule:nonzero;stroke:none;font-family:CMTT12;-inkscape-font-specification:CMTT12">a</tspan>
            </text>
            <g
               transform="translate(182.403,281.626)"
               id="g3241" />
          </g>
        </g>
        <g
           transform="translate(-25.271,-16.135)"
           id="g3243" />
      </g>
      <g
         id="g3247"
         transform="matrix(3.2621558,0,0,-3.2621558,497.07104,662.36219)">
        <g
           id="g3249">
          <g
             id="g3251"
             transform="translate(-182.403,-281.626)">
            <text
               transform="matrix(1,0,0,-1,182.403,281.626)"
               id="text3253">
              <tspan
                 style="font-size:11.9552002px;font-variant:normal;font-weight:normal;writing-mode:lr-tb;fill:#000080;fill-opacity:1;fill-rule:nonzero;stroke:none;font-family:CMTT12;-inkscape-font-specification:CMTT12"
                 x="0"
                 y="0"
                 id="tspan3255">a</tspan>
            </text>
            <g
               id="g3257"
               transform="translate(182.403,281.626)" />
          </g>
        </g>
        <g
           id="g3259"
           transform="translate(-25.271,-16.135)" />
      </g>
      <g
         id="g3350"
         transform="matrix(3.2621558,0,0,-3.2621558,313.53552,762.36219)">
        <g
           id="g3352">
          <g
             id="g3354"
             transform="translate(-182.403,-281.626)">
            <text
               transform="matrix(1,0,0,-1,182.403,281.626)"
               id="text3356">
              <tspan
                 style="font-size:11.9552002px;font-variant:normal;font-weight:normal;writing-mode:lr-tb;fill:#000080;fill-opacity:1;fill-rule:nonzero;stroke:none;font-family:CMTT12;-inkscape-font-specification:CMTT12"
                 x="0"
                 y="0"
                 id="tspan3358">a</tspan>
            </text>
            <g
               id="g3360"
               transform="translate(182.403,281.626)" />
          </g>
        </g>
        <g
           id="g3362"
           transform="translate(-25.271,-16.135)" />
      </g>
    </g>
    <g
       id="g360"
       transform="matrix(4.0925213,0,0,-4.0925213,104.15485,672.36218)">
      <path
         inkscape:connector-curvature="0"
         d="m -30.5731,0 12.4535,0"
         style="fill:none;stroke:#000000;stroke-width:0.3985;stroke-linecap:butt;stroke-linejoin:miter;stroke-miterlimit:10;stroke-opacity:1;stroke-dasharray:none"
         id="path362" />
      <g
         id="g364"
         transform="translate(-18.1196,0)">
        <g
           id="g366">
          <path
             inkscape:connector-curvature="0"
             d="M 1.99252,0 -1.19551,1.59401 0,0 -1.19551,-1.59401"
             style="fill:#000000;fill-opacity:1;fill-rule:nonzero;stroke:none"
             id="path368" />
        </g>
      </g>
      <g
         id="g370">
        <g
           id="g372"
           transform="translate(-34.673,0)">
          <g
             id="g374" />
          <g
             id="g376"
             transform="translate(34.673,0)" />
        </g>
      </g>
    </g>
    <g
       transform="matrix(4.0925213,0,0,-4.0925213,250.12106,672.36218)"
       id="g3459">
      <path
         id="path3461"
         style="fill:none;stroke:#000000;stroke-width:0.3985;stroke-linecap:butt;stroke-linejoin:miter;stroke-miterlimit:10;stroke-opacity:1;stroke-dasharray:none"
         d="m -30.5731,0 8.552186,-6.3950492e-7"
         inkscape:connector-curvature="0"
         sodipodi:nodetypes="cc" />
      <g
         transform="translate(-18.1196,0)"
         id="g3463">
        <g
           id="g3465">
          <path
             id="path3467"
             style="fill:#000000;fill-opacity:1;fill-rule:nonzero;stroke:none"
             d="M -2.6795734,-6.3950492e-7 -5.8676034,1.5940094 -4.6720934,-6.3950492e-7 -5.8676034,-1.5940106"
             inkscape:connector-curvature="0"
             sodipodi:nodetypes="cccc" />
        </g>
      </g>
      <g
         id="g3469">
        <g
           transform="translate(-34.673,0)"
           id="g3471">
          <g
             id="g3473" />
          <g
             transform="translate(34.673,0)"
             id="g3475" />
        </g>
      </g>
    </g>
    <g
       id="g3477"
       transform="matrix(4.0925213,0,0,-4.0925213,370.12106,672.36218)">
      <path
         sodipodi:nodetypes="cc"
         inkscape:connector-curvature="0"
         d="m -30.5731,0 8.552186,-6.3950492e-7"
         style="fill:none;stroke:#000000;stroke-width:0.3985;stroke-linecap:butt;stroke-linejoin:miter;stroke-miterlimit:10;stroke-opacity:1;stroke-dasharray:none"
         id="path3479" />
      <g
         id="g3481"
         transform="translate(-18.1196,0)">
        <g
           id="g3483">
          <path
             sodipodi:nodetypes="cccc"
             inkscape:connector-curvature="0"
             d="M -2.6795734,-6.3950492e-7 -5.8676034,1.5940094 -4.6720934,-6.3950492e-7 -5.8676034,-1.5940106"
             style="fill:#000000;fill-opacity:1;fill-rule:nonzero;stroke:none"
             id="path3485" />
        </g>
      </g>
      <g
         id="g3487">
        <g
           id="g3489"
           transform="translate(-34.673,0)">
          <g
             id="g3491" />
          <g
             id="g3493"
             transform="translate(34.673,0)" />
        </g>
      </g>
    </g>
    <g
       transform="matrix(4.0925213,0,0,-4.0925213,492.12106,672.36218)"
       id="g3495">
      <path
         id="path3497"
         style="fill:none;stroke:#000000;stroke-width:0.3985;stroke-linecap:butt;stroke-linejoin:miter;stroke-miterlimit:10;stroke-opacity:1;stroke-dasharray:none"
         d="m -30.5731,0 8.552186,-6.3950492e-7"
         inkscape:connector-curvature="0"
         sodipodi:nodetypes="cc" />
      <g
         transform="translate(-18.1196,0)"
         id="g3499">
        <g
           id="g3501">
          <path
             id="path3503"
             style="fill:#000000;fill-opacity:1;fill-rule:nonzero;stroke:none"
             d="M -2.6795734,-6.3950492e-7 -5.8676034,1.5940094 -4.6720934,-6.3950492e-7 -5.8676034,-1.5940106"
             inkscape:connector-curvature="0"
             sodipodi:nodetypes="cccc" />
        </g>
      </g>
      <g
         id="g3505">
        <g
           transform="translate(-34.673,0)"
           id="g3507">
          <g
             id="g3509" />
          <g
             transform="translate(34.673,0)"
             id="g3511" />
        </g>
      </g>
    </g>
    <g
       id="g3513"
       transform="matrix(4.0925213,0,0,-4.0925213,613.12106,672.36218)">
      <path
         sodipodi:nodetypes="cc"
         inkscape:connector-curvature="0"
         d="m -30.5731,0 8.552186,-6.3950492e-7"
         style="fill:none;stroke:#000000;stroke-width:0.3985;stroke-linecap:butt;stroke-linejoin:miter;stroke-miterlimit:10;stroke-opacity:1;stroke-dasharray:none"
         id="path3515" />
      <g
         id="g3517"
         transform="translate(-18.1196,0)">
        <g
           id="g3519">
          <path
             sodipodi:nodetypes="cccc"
             inkscape:connector-curvature="0"
             d="M -2.6795734,-6.3950492e-7 -5.8676034,1.5940094 -4.6720934,-6.3950492e-7 -5.8676034,-1.5940106"
             style="fill:#000000;fill-opacity:1;fill-rule:nonzero;stroke:none"
             id="path3521" />
        </g>
      </g>
      <g
         id="g3523">
        <g
           id="g3525"
           transform="translate(-34.673,0)">
          <g
             id="g3527" />
          <g
             id="g3529"
             transform="translate(34.673,0)" />
        </g>
      </g>
    </g>
    <g
       id="g3549"
       transform="matrix(1,0,0,-1,-10.05288,1186.662)">
      <path
         inkscape:connector-curvature="0"
         d="m 110,552.36218 c 25.63527,95.67247 -57.38381,95.67247 -34.94712,11.93764"
         style="fill:none;stroke:#000000;stroke-width:1.64458835;stroke-linecap:butt;stroke-linejoin:miter;stroke-miterlimit:10;stroke-opacity:1;stroke-dasharray:none"
         id="path524" />
      <g
         id="g526"
         transform="matrix(1.4509004,-5.4149717,-5.4149717,-1.4509004,75,564.36218)">
        <g
           id="g528">
          <path
             inkscape:connector-curvature="0"
             d="M 1.99252,0 -1.19551,1.59401 0,0 -1.19551,-1.59401"
             style="fill:#000000;fill-opacity:1;fill-rule:nonzero;stroke:none"
             id="path530" />
        </g>
      </g>
    </g>
    <g
       transform="matrix(1,0,0,-1,109.94712,1186.662)"
       id="g3555">
      <path
         id="path3557"
         style="fill:none;stroke:#000000;stroke-width:1.64458835;stroke-linecap:butt;stroke-linejoin:miter;stroke-miterlimit:10;stroke-opacity:1;stroke-dasharray:none"
         d="m 110,552.36218 c 25.63527,95.67247 -57.38381,95.67247 -34.94712,11.93764"
         inkscape:connector-curvature="0" />
      <g
         transform="matrix(1.4509004,-5.4149717,-5.4149717,-1.4509004,75,564.36218)"
         id="g3559">
        <g
           id="g3561">
          <path
             id="path3563"
             style="fill:#000000;fill-opacity:1;fill-rule:nonzero;stroke:none"
             d="M 1.99252,0 -1.19551,1.59401 0,0 -1.19551,-1.59401"
             inkscape:connector-curvature="0" />
        </g>
      </g>
    </g>
    <g
       id="g3565"
       transform="matrix(1,0,0,-1,229.94712,1186.662)">
      <path
         inkscape:connector-curvature="0"
         d="m 110,552.36218 c 25.63527,95.67247 -57.38381,95.67247 -34.94712,11.93764"
         style="fill:none;stroke:#000000;stroke-width:1.64458835;stroke-linecap:butt;stroke-linejoin:miter;stroke-miterlimit:10;stroke-opacity:1;stroke-dasharray:none"
         id="path3567" />
      <g
         id="g3569"
         transform="matrix(1.4509004,-5.4149717,-5.4149717,-1.4509004,75,564.36218)">
        <g
           id="g3571">
          <path
             inkscape:connector-curvature="0"
             d="M 1.99252,0 -1.19551,1.59401 0,0 -1.19551,-1.59401"
             style="fill:#000000;fill-opacity:1;fill-rule:nonzero;stroke:none"
             id="path3573" />
        </g>
      </g>
    </g>
    <g
       transform="matrix(1,0,0,-1,349.94712,1186.662)"
       id="g3575">
      <path
         id="path3577"
         style="fill:none;stroke:#000000;stroke-width:1.64458835;stroke-linecap:butt;stroke-linejoin:miter;stroke-miterlimit:10;stroke-opacity:1;stroke-dasharray:none"
         d="m 110,552.36218 c 25.63527,95.67247 -57.38381,95.67247 -34.94712,11.93764"
         inkscape:connector-curvature="0" />
      <g
         transform="matrix(1.4509004,-5.4149717,-5.4149717,-1.4509004,75,564.36218)"
         id="g3579">
        <g
           id="g3581">
          <path
             id="path3583"
             style="fill:#000000;fill-opacity:1;fill-rule:nonzero;stroke:none"
             d="M 1.99252,0 -1.19551,1.59401 0,0 -1.19551,-1.59401"
             inkscape:connector-curvature="0" />
        </g>
      </g>
    </g>
    <g
       id="g3585"
       transform="matrix(1,0,0,-1,469.94712,1186.662)">
      <path
         inkscape:connector-curvature="0"
         d="m 110,552.36218 c 25.63527,95.67247 -57.38381,95.67247 -34.94712,11.93764"
         style="fill:none;stroke:#000000;stroke-width:1.64458835;stroke-linecap:butt;stroke-linejoin:miter;stroke-miterlimit:10;stroke-opacity:1;stroke-dasharray:none"
         id="path3587" />
      <g
         id="g3589"
         transform="matrix(1.4509004,-5.4149717,-5.4149717,-1.4509004,75,564.36218)">
        <g
           id="g3591">
          <path
             inkscape:connector-curvature="0"
             d="M 1.99252,0 -1.19551,1.59401 0,0 -1.19551,-1.59401"
             style="fill:#000000;fill-opacity:1;fill-rule:nonzero;stroke:none"
             id="path3593" />
        </g>
      </g>
    </g>
    <g
       id="g3716">
      <g
         id="g3597"
         transform="matrix(3.2621558,0,0,-3.2621558,70,542.36219)">
        <g
           id="g3599">
          <g
             id="g3601"
             transform="translate(-182.403,-281.626)">
            <text
               transform="matrix(1,0,0,-1,182.403,281.626)"
               id="text3603">
              <tspan
                 style="font-size:11.9552002px;font-variant:normal;font-weight:normal;writing-mode:lr-tb;fill:#000080;fill-opacity:1;fill-rule:nonzero;stroke:none;font-family:CMTT12;-inkscape-font-specification:CMTT12"
                 x="0"
                 y="0"
                 id="tspan3605">b</tspan>
            </text>
            <g
               id="g3607"
               transform="translate(182.403,281.626)" />
          </g>
        </g>
        <g
           id="g3609"
           transform="translate(-25.271,-16.135)" />
      </g>
      <g
         transform="matrix(3.2621558,0,0,-3.2621558,190.50508,542.36219)"
         id="g3611">
        <g
           id="g3613">
          <g
             transform="translate(-182.403,-281.626)"
             id="g3615">
            <text
               id="text3617"
               transform="matrix(1,0,0,-1,182.403,281.626)">
              <tspan
                 id="tspan3619"
                 y="0"
                 x="0"
                 style="font-size:11.9552002px;font-variant:normal;font-weight:normal;writing-mode:lr-tb;fill:#000080;fill-opacity:1;fill-rule:nonzero;stroke:none;font-family:CMTT12;-inkscape-font-specification:CMTT12">b</tspan>
            </text>
            <g
               transform="translate(182.403,281.626)"
               id="g3621" />
          </g>
        </g>
        <g
           transform="translate(-25.271,-16.135)"
           id="g3623" />
      </g>
      <g
         id="g3625"
         transform="matrix(3.2621558,0,0,-3.2621558,311.01015,542.36219)">
        <g
           id="g3627">
          <g
             id="g3629"
             transform="translate(-182.403,-281.626)">
            <text
               transform="matrix(1,0,0,-1,182.403,281.626)"
               id="text3631">
              <tspan
                 style="font-size:11.9552002px;font-variant:normal;font-weight:normal;writing-mode:lr-tb;fill:#000080;fill-opacity:1;fill-rule:nonzero;stroke:none;font-family:CMTT12;-inkscape-font-specification:CMTT12"
                 x="0"
                 y="0"
                 id="tspan3633">b</tspan>
            </text>
            <g
               id="g3635"
               transform="translate(182.403,281.626)" />
          </g>
        </g>
        <g
           id="g3637"
           transform="translate(-25.271,-16.135)" />
      </g>
      <g
         transform="matrix(3.2621558,0,0,-3.2621558,431.51522,542.36219)"
         id="g3639">
        <g
           id="g3641">
          <g
             transform="translate(-182.403,-281.626)"
             id="g3643">
            <text
               id="text3645"
               transform="matrix(1,0,0,-1,182.403,281.626)">
              <tspan
                 id="tspan3647"
                 y="0"
                 x="0"
                 style="font-size:11.9552002px;font-variant:normal;font-weight:normal;writing-mode:lr-tb;fill:#000080;fill-opacity:1;fill-rule:nonzero;stroke:none;font-family:CMTT12;-inkscape-font-specification:CMTT12">b</tspan>
            </text>
            <g
               transform="translate(182.403,281.626)"
               id="g3649" />
          </g>
        </g>
        <g
           transform="translate(-25.271,-16.135)"
           id="g3651" />
      </g>
      <g
         id="g3702"
         transform="matrix(3.2621558,0,0,-3.2621558,552.02029,542.36219)">
        <g
           id="g3704">
          <g
             id="g3706"
             transform="translate(-182.403,-281.626)">
            <text
               transform="matrix(1,0,0,-1,182.403,281.626)"
               id="text3708">
              <tspan
                 style="font-size:11.9552002px;font-variant:normal;font-weight:normal;writing-mode:lr-tb;fill:#000080;fill-opacity:1;fill-rule:nonzero;stroke:none;font-family:CMTT12;-inkscape-font-specification:CMTT12"
                 x="0"
                 y="0"
                 id="tspan3710">b</tspan>
            </text>
            <g
               id="g3712"
               transform="translate(182.403,281.626)" />
          </g>
        </g>
        <g
           id="g3714"
           transform="translate(-25.271,-16.135)" />
      </g>
    </g>
    <path
       sodipodi:nodetypes="cc"
       inkscape:connector-curvature="0"
       d="m 570,712.36218 c -1.45548,81.14643 -488.846384,85.63235 -487.357016,0.71158"
       style="fill:none;stroke:#000000;stroke-width:1.64458835;stroke-linecap:butt;stroke-linejoin:miter;stroke-miterlimit:10;stroke-opacity:1;stroke-dasharray:none"
       id="path3755" />
    <g
       id="g3757"
       transform="matrix(-0.23758503,-5.600945,5.600945,-0.23758503,88.299053,628.80466)">
      <g
         id="g3759">
        <path
           sodipodi:nodetypes="cccc"
           inkscape:connector-curvature="0"
           d="m -13.037314,-1.5836465 -3.18803,1.59401005 1.19551,-1.59401005 -1.19551,-1.59401"
           style="fill:#000000;fill-opacity:1;fill-rule:nonzero;stroke:none"
           id="path3761" />
      </g>
    </g>
  </g>
</svg>
