<?xml version="1.0" encoding="UTF-8" standalone="no"?>
<!-- Created with Inkscape (http://www.inkscape.org/) -->

<svg
   xmlns:dc="http://purl.org/dc/elements/1.1/"
   xmlns:cc="http://creativecommons.org/ns#"
   xmlns:rdf="http://www.w3.org/1999/02/22-rdf-syntax-ns#"
   xmlns:svg="http://www.w3.org/2000/svg"
   xmlns="http://www.w3.org/2000/svg"
   xmlns:sodipodi="http://sodipodi.sourceforge.net/DTD/sodipodi-0.dtd"
   xmlns:inkscape="http://www.inkscape.org/namespaces/inkscape"
   id="svg2"
   version="1.1"
   inkscape:version="0.48.3.1 r9886"
   width="743.75"
   height="1052.5"
   xml:space="preserve"
   sodipodi:docname="kl-mar11.pdf"><metadata
     id="metadata8"><rdf:RDF><cc:Work
         rdf:about=""><dc:format>image/svg+xml</dc:format><dc:type
           rdf:resource="http://purl.org/dc/dcmitype/StillImage" /><dc:title></dc:title></cc:Work></rdf:RDF></metadata><defs
     id="defs6" /><sodipodi:namedview
     pagecolor="#ffffff"
     bordercolor="#666666"
     borderopacity="1"
     objecttolerance="10"
     gridtolerance="10"
     guidetolerance="10"
     inkscape:pageopacity="0"
     inkscape:pageshadow="2"
     inkscape:window-width="1366"
     inkscape:window-height="754"
     id="namedview4"
     showgrid="false"
     inkscape:zoom="2.5368505"
     inkscape:cx="415.10476"
     inkscape:cy="693.09787"
     inkscape:window-x="0"
     inkscape:window-y="14"
     inkscape:window-maximized="0"
     inkscape:current-layer="g10" /><g
     id="g10"
     inkscape:groupmode="layer"
     inkscape:label="kl-mar11"
     transform="matrix(1.25,0,0,-1.25,0,1052.5)"><path
       inkscape:connector-curvature="0"
       id="path72"
       style="fill:none;stroke:#000000;stroke-width:0.79701102;stroke-linecap:butt;stroke-linejoin:miter;stroke-miterlimit:10;stroke-opacity:1;stroke-dasharray:none"
       d="m 278.271,508.432 c 0,4.543 -3.682,8.225 -8.225,8.225 -4.542,0 -8.225,-3.682 -8.225,-8.225 0,-4.542 3.683,-8.225 8.225,-8.225 4.543,0 8.225,3.683 8.225,8.225 z" /><text
       transform="scale(1,-1)"
       id="text76"
       x="266.17395"
       y="-504.26465"><tspan
         style="font-size:11.9552002px;font-variant:normal;font-weight:normal;writing-mode:lr-tb;fill:#000000;fill-opacity:1;fill-rule:nonzero;stroke:none;font-family:CMR12;-inkscape-font-specification:CMR12"
         x="266.17395"
         y="-504.26465"
         id="tspan78">0</tspan></text>
<path
       inkscape:connector-curvature="0"
       id="path80"
       style="fill:none;stroke:#000000;stroke-width:0.79701102;stroke-linecap:butt;stroke-linejoin:miter;stroke-miterlimit:10;stroke-opacity:1;stroke-dasharray:none"
       d="m 363.352,508.432 c 0,4.543 -3.683,8.225 -8.225,8.225 -4.543,0 -8.225,-3.682 -8.225,-8.225 0,-4.542 3.682,-8.225 8.225,-8.225 4.542,0 8.225,3.683 8.225,8.225 z" /><text
       transform="scale(1,-1)"
       id="text84"
       x="351.88467"
       y="-504.26465"><tspan
         style="font-size:11.9552002px;font-variant:normal;font-weight:normal;writing-mode:lr-tb;fill:#000000;fill-opacity:1;fill-rule:nonzero;stroke:none;font-family:CMR12;-inkscape-font-specification:CMR12"
         x="351.88467"
         y="-504.26465"
         id="tspan86">1</tspan></text>
<path
       inkscape:connector-curvature="0"
       id="path88"
       style="fill:none;stroke:#000000;stroke-width:0.79701102;stroke-linecap:butt;stroke-linejoin:miter;stroke-miterlimit:10;stroke-opacity:1;stroke-dasharray:none"
       d="m 321.507,565.185 c 0,4.947 -4.011,8.958 -8.959,8.958 -4.947,0 -8.958,-4.011 -8.958,-8.958 0,-4.947 4.011,-8.959 8.958,-8.959 4.948,0 8.959,4.012 8.959,8.959 z" /><text
       transform="scale(1,-1)"
       id="text92"
       x="311.28284"
       y="-561.73065"><tspan
         style="font-size:11.9552002px;font-variant:normal;font-weight:normal;writing-mode:lr-tb;fill:#000000;fill-opacity:1;fill-rule:nonzero;stroke:none;font-family:CMMI12;-inkscape-font-specification:CMMI12"
         x="311.28284"
         y="-561.73065"
         id="tspan94">J</tspan></text>
<path
       inkscape:connector-curvature="0"
       id="path96"
       style="fill:none;stroke:#000000;stroke-width:0.79701102;stroke-linecap:butt;stroke-linejoin:miter;stroke-miterlimit:10;stroke-opacity:1;stroke-dasharray:none"
       d="m 366.005,508.446 c 0,6.042 -4.898,10.94 -10.939,10.94 -6.042,0 -10.94,-4.898 -10.94,-10.94 0,-6.041 4.898,-10.939 10.94,-10.939 6.041,0 10.939,4.898 10.939,10.939 z" /><path
       inkscape:connector-curvature="0"
       id="path98"
       style="fill:#000000;fill-opacity:1;fill-rule:nonzero;stroke:none"
       d="m 259.798,516.494 4.15,-1.965 -1.966,4.15 0.131,-2.315" /><path
       inkscape:connector-curvature="0"
       id="path100"
       style="fill:none;stroke:#000000;stroke-width:0.79701102;stroke-linecap:butt;stroke-linejoin:miter;stroke-miterlimit:10;stroke-opacity:1;stroke-dasharray:none"
       d="m 241.68,536.793 20.433,-20.429" /><path
       inkscape:connector-curvature="0"
       id="path102"
       style="fill:#000000;fill-opacity:1;fill-rule:nonzero;stroke:none"
       d="m 339.341,509.095 4.497,0.928 -4.068,2.13 1.498,-1.77" /><path
       inkscape:connector-curvature="0"
       id="path104"
       style="fill:none;stroke:#000000;stroke-width:0.79701102;stroke-linecap:butt;stroke-linejoin:miter;stroke-miterlimit:10;stroke-opacity:1;stroke-dasharray:none"
       d="m 278.586,509.634 c 21.646,3.046 43.604,3.427 62.682,0.749" /><text
       transform="scale(1,-1)"
       id="text108"
       x="308.013"
       y="-517.96802"><tspan
         style="font-size:11.9552002px;font-variant:normal;font-weight:normal;writing-mode:lr-tb;fill:#000000;fill-opacity:1;fill-rule:nonzero;stroke:none;font-family:CMTT12;-inkscape-font-specification:CMTT12"
         x="308.013"
         y="-517.96802"
         id="tspan110">b</tspan></text>
<path
       inkscape:connector-curvature="0"
       id="path112"
       style="fill:#000000;fill-opacity:1;fill-rule:nonzero;stroke:none"
       d="m 283.083,508.162 -4.497,-0.928 4.068,-2.131 -1.499,1.77" /><path
       inkscape:connector-curvature="0"
       id="path114"
       style="fill:none;stroke:#000000;stroke-width:0.79701102;stroke-linecap:butt;stroke-linejoin:miter;stroke-miterlimit:10;stroke-opacity:1;stroke-dasharray:none"
       d="m 343.838,506.867 c -21.647,-3.046 -43.604,-2.672 -62.683,0.006" /><text
       transform="scale(1,-1)"
       id="text118"
       x="308.017"
       y="-493.871"><tspan
         style="font-size:11.9552002px;font-variant:normal;font-weight:normal;writing-mode:lr-tb;fill:#000000;fill-opacity:1;fill-rule:nonzero;stroke:none;font-family:CMTT12;-inkscape-font-specification:CMTT12"
         x="308.017"
         y="-493.871"
         id="tspan120">a</tspan></text>
<path
       inkscape:connector-curvature="0"
       id="path122"
       style="fill:#000000;fill-opacity:1;fill-rule:nonzero;stroke:none"
       d="m 305.584,553.309 1.355,4.386 -3.827,-2.535 2.272,0.459" /><path
       inkscape:connector-curvature="0"
       id="path124"
       style="fill:none;stroke:#000000;stroke-width:0.79701102;stroke-linecap:butt;stroke-linejoin:miter;stroke-miterlimit:10;stroke-opacity:1;stroke-dasharray:none"
       d="m 275.216,515.335 30.168,40.284" /><text
       transform="scale(1,-1)"
       id="text128"
       x="279.94601"
       y="-539.61798"><tspan
         style="font-size:11.9552002px;font-variant:normal;font-weight:normal;writing-mode:lr-tb;fill:#000000;fill-opacity:1;fill-rule:nonzero;stroke:none;font-family:CMTT12;-inkscape-font-specification:CMTT12"
         x="279.94601"
         y="-539.61798"
         id="tspan130">a</tspan></text>
<path
       inkscape:connector-curvature="0"
       id="path132"
       style="fill:#000000;fill-opacity:1;fill-rule:nonzero;stroke:none"
       d="m 321.988,555.163 -3.828,2.534 1.357,-4.386 0.198,2.31" /><path
       inkscape:connector-curvature="0"
       id="path134"
       style="fill:none;stroke:#000000;stroke-width:0.79701102;stroke-linecap:butt;stroke-linejoin:miter;stroke-miterlimit:10;stroke-opacity:1;stroke-dasharray:none"
       d="m 348.266,517.52 -28.551,38.101" /><text
       transform="scale(1,-1)"
       id="text138"
       x="338.23199"
       y="-540.53998"><tspan
         style="font-size:11.9552002px;font-variant:normal;font-weight:normal;writing-mode:lr-tb;fill:#000000;fill-opacity:1;fill-rule:nonzero;stroke:none;font-family:CMTT12;-inkscape-font-specification:CMTT12"
         x="338.23199"
         y="-540.53998"
         id="tspan140">b</tspan></text>
<path
       inkscape:connector-curvature="0"
       id="path142"
       style="fill:#000000;fill-opacity:1;fill-rule:nonzero;stroke:none"
       d="m 300.294,571.721 3.731,-2.675 -1.192,4.433 -0.285,-2.301" /><path
       inkscape:connector-curvature="0"
       id="path144"
       style="fill:none;stroke:#000000;stroke-width:0.79701102;stroke-linecap:butt;stroke-linejoin:miter;stroke-miterlimit:10;stroke-opacity:1;stroke-dasharray:none"
       d="m 321.072,569.046 c 1.814,2.068 2.815,4.725 2.815,7.477 0,6.262 -5.077,11.338 -11.339,11.338 -6.261,0 -11.338,-5.076 -11.338,-11.338 0,-1.9 0.478,-3.77 1.389,-5.437" /><text
       transform="scale(1,-1)"
       id="text148"
       x="303.789"
       y="-595.935"><tspan
         style="font-size:11.9552002px;font-variant:normal;font-weight:normal;writing-mode:lr-tb;fill:#000000;fill-opacity:1;fill-rule:nonzero;stroke:none;font-family:CMTT12;-inkscape-font-specification:CMTT12"
         x="303.789"
         y="-595.935"
         id="tspan150">a</tspan></text>
<text
       transform="scale(1,-1)"
       id="text152"
       x="309.90891"
       y="-595.935"><tspan
         style="font-size:11.9552002px;font-variant:normal;font-weight:normal;writing-mode:lr-tb;fill:#000000;fill-opacity:1;fill-rule:nonzero;stroke:none;font-family:CMMI12;-inkscape-font-specification:CMMI12"
         x="309.90891"
         y="-595.935"
         id="tspan154">,</tspan></text>
<text
       transform="scale(1,-1)"
       id="text156"
       x="315.189"
       y="-595.935"><tspan
         style="font-size:11.9552002px;font-variant:normal;font-weight:normal;writing-mode:lr-tb;fill:#000000;fill-opacity:1;fill-rule:nonzero;stroke:none;font-family:CMTT12;-inkscape-font-specification:CMTT12"
         x="315.189"
         y="-595.935"
         id="tspan158">b</tspan></text>
</g></svg>